HIERARCHY
ROOT Hips
{
	OFFSET 0.000000 0.000000 0.000000
	CHANNELS 6 Xposition Yposition Zposition Xrotation Yrotation Zrotation
	JOINT LeftUpLeg_virtual
	{
		OFFSET 0.000000 0.000000 0.000000
		CHANNELS 3 Xrotation Yrotation Zrotation
		JOINT LeftUpLeg
		{
			OFFSET 13.026900 -6.336304 -1.092800
			CHANNELS 3 Xrotation Yrotation Zrotation
			JOINT LeftLeg
			{
				OFFSET 0.524474 -46.096886 9.782700
				CHANNELS 3 Xrotation Yrotation Zrotation
				JOINT LeftFoot
				{
					OFFSET -0.524474 -53.427422 -12.948200
					CHANNELS 3 Xrotation Yrotation Zrotation
					JOINT LeftToeBase
					{
						OFFSET 0.192200 -14.009700 16.364100
						CHANNELS 3 Xrotation Yrotation Zrotation
						JOINT LeftToe_End
						{
							OFFSET -1.784700 -0.561700 9.474800
							CHANNELS 3 Xrotation Yrotation Zrotation
							End Site
							{
								OFFSET 0 0 0
							}
						}
					}
				}
			}
		}
	}
	JOINT RightUpLeg_virtual
	{
		OFFSET 0.000000 0.000000 0.000000
		CHANNELS 3 Xrotation Yrotation Zrotation
		JOINT RightUpLeg
		{
			OFFSET -12.883000 -6.336304 -1.092800
			CHANNELS 3 Xrotation Yrotation Zrotation
			JOINT RightLeg
			{
				OFFSET -0.524587 -46.096825 9.782800
				CHANNELS 3 Xrotation Yrotation Zrotation
				JOINT RightFoot
				{
					OFFSET 0.524587 -53.427383 -12.948300
					CHANNELS 3 Xrotation Yrotation Zrotation
					JOINT RightToeBase
					{
						OFFSET -0.192200 -14.009700 16.364100
						CHANNELS 3 Xrotation Yrotation Zrotation
						JOINT RightToe_End
						{
							OFFSET 1.784700 -0.561700 9.474800
							CHANNELS 3 Xrotation Yrotation Zrotation
							End Site
							{
								OFFSET 0 0 0
							}
						}
					}
				}
			}
		}
	}
	JOINT Spine_virtual
	{
		OFFSET 0.000000 0.000000 0.000000
		CHANNELS 3 Xrotation Yrotation Zrotation
		JOINT Spine
		{
			OFFSET 0.072000 7.257294 -0.789700
			CHANNELS 3 Xrotation Yrotation Zrotation
			JOINT Spine1
			{
				OFFSET 0.000000 12.508769 -0.658067
				CHANNELS 3 Xrotation Yrotation Zrotation
				JOINT Spine1_split
				{
					OFFSET 0.000000 12.508769 -0.658067
					CHANNELS 3 Xrotation Yrotation Zrotation
					JOINT Spine2
					{
						OFFSET 0.000000 12.508769 -0.658067
						CHANNELS 3 Xrotation Yrotation Zrotation
						JOINT Neck_virtual
						{
							OFFSET 0.000000 0.000000 0.000000
							CHANNELS 3 Xrotation Yrotation Zrotation
							JOINT Neck
							{
								OFFSET 0.000000 14.033295 7.520400
								CHANNELS 3 Xrotation Yrotation Zrotation
								JOINT Head
								{
									OFFSET 0.000000 8.198502 5.703100
									CHANNELS 3 Xrotation Yrotation Zrotation
									JOINT HeadTop_End
									{
										OFFSET 0.000000 17.760803 13.332701
										CHANNELS 3 Xrotation Yrotation Zrotation
										End Site
										{
											OFFSET 0 0 0
										}
									}
								}
							}
						}
						JOINT LeftShoulder_virtual
						{
							OFFSET 0.000000 0.000000 0.000000
							CHANNELS 3 Xrotation Yrotation Zrotation
							JOINT LeftShoulder
							{
								OFFSET 6.292450 5.785301 -0.669000
								CHANNELS 3 Xrotation Yrotation Zrotation
								JOINT LeftShoulder_split
								{
									OFFSET 6.292450 5.785301 -0.669000
									CHANNELS 3 Xrotation Yrotation Zrotation
									JOINT LeftArm
									{
										OFFSET 13.907140 -6.093903 1.965100
										CHANNELS 3 Xrotation Yrotation Zrotation
										JOINT LeftForeArm
										{
											OFFSET 34.140198 0.000000 0.000000
											CHANNELS 3 Xrotation Yrotation Zrotation
											JOINT LeftHand
											{
												OFFSET 40.960209 0.000000 0.000000
												CHANNELS 3 Xrotation Yrotation Zrotation
												End Site
												{
													OFFSET 0 0 0
												}
											}
										}
									}
								}
							}
						}
						JOINT RightShoulder_virtual
						{
							OFFSET 0.000000 0.000000 0.000000
							CHANNELS 3 Xrotation Yrotation Zrotation
							JOINT RightShoulder
							{
								OFFSET -6.292450 5.785301 -0.669000
								CHANNELS 3 Xrotation Yrotation Zrotation
								JOINT RightShoulder_split
								{
									OFFSET -6.292450 5.785301 -0.669000
									CHANNELS 3 Xrotation Yrotation Zrotation
									JOINT RightArm
									{
										OFFSET -13.907140 -6.093903 1.965100
										CHANNELS 3 Xrotation Yrotation Zrotation
										JOINT RightForeArm
										{
											OFFSET -34.140198 0.000000 0.000000
											CHANNELS 3 Xrotation Yrotation Zrotation
											JOINT RightHand
											{
												OFFSET -40.960209 0.000000 0.000000
												CHANNELS 3 Xrotation Yrotation Zrotation
												End Site
												{
													OFFSET 0 0 0
												}
											}
										}
									}
								}
							}
						}
					}
				}
			}
		}
	}
}
MOTION
Frames: 4
Frame Time: 0.03333333
-21.960377 174.280975 32.843803 0.000000 0.000000 0.000000 3.896902 -8.709348 3.980810 -22.345751 13.489973 3.563188 20.138224 11.791092 4.880493 18.007404 -9.436563 -2.797565 5.232044 -1.562995 0.747340 0.000000 0.000000 0.000000 3.503868 -11.681882 3.712663 -10.302476 -7.620226 -10.248924 9.398162 -3.464171 4.276363 22.636732 -11.913323 8.663578 5.017222 6.432851 -1.870393 0.000000 0.000000 0.000000 3.211097 -3.955135 1.277178 4.495230 3.505936 -0.425407 -4.022291 -5.579817 -1.369435 0.375220 -0.478864 -0.042754 0.000000 0.000000 0.000000 0.024661 -2.476955 1.458299 -6.166060 31.020165 -10.566292 -44.457626 -37.457027 -24.307643 0.000000 0.000000 0.000000 -1.496577 -3.614348 -0.316014 11.841630 -1.444134 35.385824 7.870857 -0.475364 -2.468611 -74.164824 -11.964103 30.497768 -26.153245 -48.333093 3.922512 0.000000 0.000000 0.000000 -2.344951 -4.664038 1.852927 -4.206090 3.554785 -31.018112 14.382196 -3.703108 -10.189269 -101.910439 7.666453 3.713134 -41.389908 59.855509 31.689219 0.000000 0.000000 0.000000 
-22.510187 169.794037 35.539230 0.000000 0.000000 0.000000 2.523559 -6.132704 2.836723 -25.359668 11.332746 5.549423 24.173178 12.338653 4.196403 21.784958 -9.475871 -5.205991 5.854631 -1.271637 -0.331436 0.000000 0.000000 0.000000 2.349743 -7.580333 2.776717 -12.550683 -7.001952 -11.040622 12.809344 -2.689630 4.439731 25.020209 -12.660591 11.660997 1.995220 6.346935 -0.635302 0.000000 0.000000 0.000000 2.182260 -0.124342 0.239256 4.745408 3.266823 1.657826 -4.511199 -4.378744 -1.540195 0.365029 -0.649718 -0.151165 0.000000 0.000000 0.000000 0.202837 -1.180373 1.255450 -9.871047 31.233943 -11.291820 -45.608025 -37.740395 -26.707515 0.000000 0.000000 0.000000 -2.018256 -2.293839 -0.568353 13.145880 -2.944835 34.157933 7.646461 -0.467137 0.258646 -70.398077 -4.327785 29.816187 -23.534945 -58.105369 4.855788 0.000000 0.000000 0.000000 -2.787554 -3.407002 1.891347 -3.696861 3.908496 -27.173349 14.815314 -4.122438 -11.799279 -90.058127 11.487587 -1.419929 -46.728326 59.802104 39.888243 0.000000 0.000000 0.000000 
-22.689135 165.302612 38.105923 0.000000 0.000000 0.000000 0.987526 -3.493964 1.409432 -28.485791 8.719949 7.216268 28.404037 12.918568 3.393538 25.819426 -9.455152 -6.025074 4.337817 -1.124003 -1.223672 0.000000 0.000000 0.000000 1.568739 -3.754182 1.652455 -13.617654 -6.845891 -10.803542 14.597298 -2.002725 4.196604 26.896288 -13.020532 14.958681 -2.282005 6.350969 0.217836 0.000000 0.000000 0.000000 1.615620 2.870892 -0.630940 4.698668 2.693536 4.219782 -5.080851 -3.299268 -1.766547 0.252636 -0.704760 -0.285008 0.000000 0.000000 0.000000 0.249297 -0.079436 0.788789 -13.252060 31.754694 -12.075875 -45.395811 -37.251360 -28.958564 0.000000 0.000000 0.000000 -2.355732 -1.258736 -0.839114 13.789499 -3.810088 32.944448 7.045946 -1.146894 3.172337 -66.623455 1.380940 28.199947 -20.898851 -60.357384 6.146569 0.000000 0.000000 0.000000 -3.356135 -2.353766 1.751572 -2.963259 4.925453 -25.118494 15.009621 -3.226684 -12.047982 -78.780269 13.898545 -6.624251 -46.690190 56.519962 41.337729 0.000000 0.000000 0.000000 
-22.617529 161.654388 40.628883 0.000000 0.000000 0.000000 -0.266666 -0.583620 0.093893 -31.081705 6.302330 8.046093 31.544641 13.868651 2.674219 28.754267 -8.954390 -5.109370 1.530780 -1.066445 -1.687913 0.000000 0.000000 0.000000 1.247044 -0.159924 0.577552 -13.184770 -7.263852 -9.581056 14.800381 -1.916648 3.654605 26.812225 -13.665755 16.975682 -6.219259 6.546963 0.430108 0.000000 0.000000 0.000000 1.521312 5.048768 -1.243723 4.273468 1.739487 6.639985 -5.691785 -2.424796 -1.984670 0.092406 -0.530607 -0.351215 0.000000 0.000000 0.000000 0.120908 0.720792 0.176075 -15.782989 32.220567 -12.788507 -43.981381 -36.401917 -30.791712 0.000000 0.000000 0.000000 -2.617471 -0.594179 -1.048549 13.821650 -4.045194 32.298677 6.857340 -2.027240 5.498059 -63.116357 3.883429 25.899519 -19.772587 -55.628520 6.346635 0.000000 0.000000 0.000000 -4.039720 -1.582834 1.484902 -2.162010 6.115720 -24.819296 15.010591 -1.733090 -11.179950 -71.786340 15.786037 -10.291207 -43.060204 50.831880 37.940905 0.000000 0.000000 0.000000 
